<svg width="174" height="175" viewBox="0 0 174 175" fill="none" xmlns="http://www.w3.org/2000/svg">
<path d="M22.6621 113.54C22.329 112.262 23.3044 111.018 24.6251 111.036L165.238 112.976C166.245 112.99 167.085 113.75 167.198 114.751L173.749 172.776C173.883 173.962 172.955 175 171.761 175H40.2264C39.3161 175 38.5206 174.385 38.291 173.504L22.6621 113.54Z" fill="url(#paint0_linear)"/>
<path d="M100.14 130C102.477 130 104.477 130.414 106.142 131.243C107.839 132.072 109.119 133.188 109.983 134.591C110.88 135.994 111.328 137.541 111.328 139.23C111.328 140.952 110.976 142.594 110.271 144.157C109.567 145.719 108.319 147.52 106.526 149.561C104.733 151.57 102.125 154.12 98.6994 157.213H112L111.232 163H90.1044V157.643C94.0418 153.786 96.9067 150.884 98.6994 148.939C100.492 146.962 101.74 145.32 102.445 144.013C103.181 142.706 103.549 141.367 103.549 139.996C103.549 138.688 103.165 137.668 102.397 136.935C101.66 136.17 100.652 135.787 99.3716 135.787C98.2192 135.787 97.1948 136.058 96.2985 136.6C95.4022 137.11 94.4579 137.955 93.4656 139.135L89 135.596C90.3445 133.842 91.945 132.471 93.8017 131.483C95.6903 130.494 97.8031 130 100.14 130Z" fill="white"/>
<path d="M21.5918 109.419C21.3254 108.174 22.2744 107 23.5475 107H166.324L167.334 116H24.6175C23.6742 116 22.8591 115.341 22.6617 114.419L21.5918 109.419Z" fill="#6893C0"/>
<path opacity="0.5" d="M23 116H167.5L153.5 0H0.5L23 116Z" fill="url(#paint1_linear)"/>
<defs>
<linearGradient id="paint0_linear" x1="82.5" y1="84.5" x2="102.22" y2="194.333" gradientUnits="userSpaceOnUse">
<stop stop-color="#3F628F"/>
<stop offset="1" stop-color="#84B4E1"/>
</linearGradient>
<linearGradient id="paint1_linear" x1="82.2661" y1="116" x2="114.268" y2="9.62771" gradientUnits="userSpaceOnUse">
<stop stop-color="#C7CCFF"/>
<stop offset="0.789671" stop-color="#5033FF" stop-opacity="0"/>
</linearGradient>
</defs>
</svg>
