<svg width="176" height="158" viewBox="0 0 176 158" fill="none" xmlns="http://www.w3.org/2000/svg">
<path d="M5.79958 114.776C5.91363 113.764 6.76913 113 7.78698 113H154.323C155.659 113 156.62 114.286 156.241 115.567L144.115 156.567C143.863 157.417 143.083 158 142.197 158H3.16397C1.97065 158 1.04285 156.962 1.17656 155.776L5.79958 114.776Z" fill="url(#paint0_linear)"/>
<path d="M78.5205 122C80.375 122 81.9552 122.3 83.2612 122.901C84.5933 123.502 85.5989 124.312 86.278 125.33C86.9832 126.349 87.3358 127.485 87.3358 128.739C87.3358 130.332 86.8787 131.664 85.9645 132.735C85.0765 133.806 83.8097 134.576 82.1642 135.047C83.9403 135.229 85.3899 135.869 86.5131 136.966C87.6362 138.037 88.1978 139.565 88.1978 141.55C88.1978 143.039 87.806 144.41 87.0224 145.664C86.2388 146.892 85.0765 147.871 83.5354 148.603C82.0205 149.334 80.2052 149.7 78.0895 149.7C74.2239 149.7 71.194 148.368 69 145.703L72.3302 142.451C73.2183 143.34 74.0802 143.993 74.916 144.41C75.778 144.802 76.7183 144.998 77.7369 144.998C78.9645 144.998 79.9571 144.659 80.7145 143.979C81.472 143.3 81.8507 142.36 81.8507 141.159C81.8507 139.8 81.4851 138.834 80.7537 138.259C80.0485 137.659 78.9776 137.358 77.541 137.358H75.347L76.0131 133.088H77.541C78.7164 133.088 79.6437 132.787 80.3228 132.187C81.0019 131.586 81.3414 130.737 81.3414 129.64C81.3414 128.674 81.028 127.929 80.4011 127.407C79.7742 126.858 78.9123 126.584 77.8153 126.584C75.9608 126.584 74.2369 127.354 72.6437 128.896L69.5877 125.565C72.0951 123.188 75.0728 122 78.5205 122Z" fill="white"/>
<path d="M6.5 109H154.608C155.855 109 156.797 110.127 156.577 111.354L155.741 116H7.97473C6.78568 116 5.85924 114.969 5.98616 113.787L6.5 109Z" fill="#6AD998"/>
<path opacity="0.5" d="M156.626 116H5L19 2.5L176 0L156.626 116Z" fill="url(#paint1_linear)"/>
<defs>
<linearGradient id="paint0_linear" x1="-4.99996" y1="88.4999" x2="128.893" y2="199.386" gradientUnits="userSpaceOnUse">
<stop stop-color="#27AE60"/>
<stop offset="1" stop-color="#79E3A5"/>
</linearGradient>
<linearGradient id="paint1_linear" x1="96.734" y1="116" x2="64.7322" y2="9.62769" gradientUnits="userSpaceOnUse">
<stop stop-color="#CBFFC7"/>
<stop offset="0.789671" stop-color="#33FF54" stop-opacity="0"/>
</linearGradient>
</defs>
</svg>
