<svg xmlns="http://www.w3.org/2000/svg" width="131" height="88" fill="none" viewBox="0 0 131 88">
    <mask id="a" width="124" height="64" x="3" y="16" maskUnits="userSpaceOnUse">
        <path fill="#C4C4C4" d="M120.148 67.85c-16.583 17.993-40.738 3.533-55.36 5.463C50.166 75.243 26 87.5 11.75 72S2.562 23.916 23.5 19.25C44.436 14.587 47.25 37 64.79 31 78.885 28.234 79.748 13.502 104 16.75c24.25 3.25 27.549 38.73 16.148 51.1z"/>
    </mask>
    <g mask="url(#a)">
        <path fill="#ECF4F7" d="M144.478 31.267c-7.186 44.077-40 65.484-77.228 65.484C30.022 96.75-.25 92.53-.25 60c0-32.532-18.468-71.046 13.749-74.251 32.217-3.206 39.808 16.138 74.75-5.5 43.368-40.47 56.228 24.576 56.228 51.017z"/>
        <path fill="#C9DDE1" d="M109.978 44.745a1.5 1.5 0 0 1 1.824-1.058l.928.24a1.5 1.5 0 0 1 1.097 1.733l-1.69 8.861a1.5 1.5 0 0 1-1.8 1.183l-1.616-.36a1.5 1.5 0 0 1-1.121-1.858l2.378-8.741z"/>
        <path fill="#C9DDE1" d="M5.5 66.705s9.027-18.524 65.54-17.584c56.513.94 61.403 17.584 61.403 17.584v16.268H5.5V66.705z"/>
        <path fill="#A9C9CF" d="M81.787 60.379a1.5 1.5 0 0 1 1.365-.879H99.2a1.5 1.5 0 0 1 1.173.565l3.186 4c.783.983.084 2.435-1.173 2.435H81.331a1.5 1.5 0 0 1-1.365-2.121l1.82-4z"/>
        <path fill="#4F4F4F" fill-rule="evenodd" d="M97.763 65.608c.276 1.51-.112 3.237-1.046 4.578-.493.708-1.331 1.031-2.261 1.096-.844.06-1.784-.092-2.665-.38a47.778 47.778 0 0 1-3.426.474c-4.196.446-29.29.608-32.702.621v-.317c3.404-.013 28.487-.175 32.668-.619a51.245 51.245 0 0 0 2.864-.377c-.828-.34-1.577-.797-2.098-1.312-.584-.577-.914-1.265-.664-1.947.24-.656.811-1.069 1.506-1.279.695-.21 1.532-.223 2.348-.07.816.152 1.625.472 2.263.942.638.47 1.115 1.097 1.242 1.862.063.379-.172.69-.536.938-.368.25-.912.467-1.578.658-.363.104-.765.202-1.201.293.667.165 1.343.24 1.957.197.878-.061 1.605-.362 2.023-.961.889-1.275 1.254-2.917.995-4.34-.259-1.416-1.133-2.608-2.728-3.025l.08-.307c1.734.454 2.683 1.759 2.96 3.275zm-5.949 4.968a19.057 19.057 0 0 0 1.776-.405c.656-.188 1.161-.394 1.487-.616.33-.223.435-.43.403-.623-.11-.661-.526-1.223-1.118-1.66-.593-.436-1.355-.74-2.133-.885-.78-.145-1.563-.129-2.198.063-.635.191-1.105.551-1.3 1.084-.186.507.038 1.068.589 1.612.546.541 1.382 1.028 2.308 1.365l.186.065z" clip-rule="evenodd"/>
        <path fill="#4F4F4F" fill-rule="evenodd" d="M90.09 67.312c-.046.686-.298 1.31-.861 1.722-.557.407-1.157.473-1.69.326a2.329 2.329 0 0 1-1.28-.93c-.29-.428-.427-.951-.273-1.433.156-.489.596-.89 1.364-1.097a17.967 17.967 0 0 1 2.134-.452 6.806 6.806 0 0 0-1.053-1.972 3.448 3.448 0 0 0-.568-.582c-.186-.145-.355-.227-.498-.251l.052-.313c.215.036.432.151.64.314.21.163.422.381.623.636a7.127 7.127 0 0 1 1.124 2.127c.787-.09 1.561-.098 2.228.045.694.15 1.29.466 1.657 1.04.365.572.48 1.37.278 2.444-.207 1.098-.811 1.863-1.651 2.373-.834.507-1.897.761-3.029.856-2.264.19-4.859-.25-6.607-.647-2.802-.637-26.256-6.909-27.633-7.465l.119-.294c1.37.554 24.806 6.819 27.584 7.45 1.74.395 4.296.827 6.51.64 1.108-.093 2.116-.34 2.891-.81.77-.468 1.316-1.16 1.505-2.162.193-1.027.072-1.735-.235-2.215-.305-.479-.813-.762-1.456-.9-.61-.131-1.327-.128-2.067-.047.15.54.227 1.089.193 1.597zm-.51-1.557c.151.528.227 1.057.195 1.536-.043.622-.267 1.146-.734 1.487-.474.347-.973.4-1.418.277a2.012 2.012 0 0 1-1.101-.802c-.254-.374-.35-.797-.234-1.16.114-.356.446-.698 1.145-.887.676-.183 1.417-.35 2.147-.451z" clip-rule="evenodd"/>
        <path fill="#BDCFD3" d="M81.039 27.537a1 1 0 0 1 .999-1.037h18.887a1 1 0 0 1 .999 1.043l-.104 2.452-.674 15.83.776 17.25a1 1 0 0 1-.999 1.045H82.04a1 1 0 0 1-1-1.039l.68-17.257-.59-15.83-.091-2.457z"/>
        <path fill="#A1C0C3" d="M83.282 44.556a1 1 0 0 1 .999-1.056h13.93a1 1 0 0 1 .998 1.065l-.049.747v5.013l.313 11.648a1 1 0 0 1-1 1.027H84.026a1 1 0 0 1-1-1.026l.299-11.649v-5.014l-.043-.755z"/>
        <path fill="#78B2B7" d="M88.129 51.457a.32.32 0 0 0-.154-.113.535.535 0 0 0-.323-.024.363.363 0 0 0-.106.043.231.231 0 0 0-.074.078.204.204 0 0 0-.029.11.17.17 0 0 0 .072.148.716.716 0 0 0 .177.089c.07.025.147.049.231.072a.973.973 0 0 1 .232.097.464.464 0 0 1 .249.435c0 .103-.02.192-.06.27a.551.551 0 0 1-.164.188.7.7 0 0 1-.234.112 1.123 1.123 0 0 1-.646-.022.701.701 0 0 1-.3-.198l.272-.247a.46.46 0 0 0 .171.148.532.532 0 0 0 .354.034.4.4 0 0 0 .115-.048.266.266 0 0 0 .083-.08.217.217 0 0 0 .031-.116.193.193 0 0 0-.071-.161.618.618 0 0 0-.178-.095 2.577 2.577 0 0 0-.231-.075 1.048 1.048 0 0 1-.232-.094.57.57 0 0 1-.177-.161.465.465 0 0 1-.071-.272.497.497 0 0 1 .231-.433.757.757 0 0 1 .24-.107 1.086 1.086 0 0 1 .583.01.73.73 0 0 1 .272.151l-.263.261zM89.021 52.42a.321.321 0 0 0 .12.225c.069.054.152.08.25.08a.431.431 0 0 0 .213-.048.602.602 0 0 0 .155-.126l.246.175a.692.692 0 0 1-.27.199.871.871 0 0 1-.603.01.673.673 0 0 1-.397-.35.67.67 0 0 1-.057-.279c0-.102.02-.194.058-.276a.665.665 0 0 1 .397-.353.871.871 0 0 1 .291-.048c.096 0 .182.016.26.048.08.03.148.076.203.135a.59.59 0 0 1 .132.22.843.843 0 0 1 .048.299v.088h-1.046zm.704-.243a.29.29 0 0 0-.095-.223.364.364 0 0 0-.254-.083.35.35 0 0 0-.246.083.366.366 0 0 0-.109.223h.704zM90.388 51.661h.343v.205h.006a.414.414 0 0 1 .163-.175.471.471 0 0 1 .366-.043v.312a.721.721 0 0 0-.166-.025.385.385 0 0 0-.194.043.35.35 0 0 0-.112.095.345.345 0 0 0-.063.188v.69h-.343v-1.29zM91.313 51.661h.375l.366.904h.005l.37-.904h.35l-.54 1.29h-.365l-.56-1.29zM93.256 52.42a.321.321 0 0 0 .12.225c.068.054.151.08.248.08a.431.431 0 0 0 .215-.048.602.602 0 0 0 .154-.126l.246.175a.692.692 0 0 1-.269.199.872.872 0 0 1-.603.01.673.673 0 0 1-.397-.35.669.669 0 0 1-.057-.279.65.65 0 0 1 .217-.491.71.71 0 0 1 .237-.138.872.872 0 0 1 .292-.048c.095 0 .182.016.26.048.08.03.148.076.203.135a.59.59 0 0 1 .131.22.843.843 0 0 1 .049.299v.088h-1.046zm.703-.243a.29.29 0 0 0-.094-.223.364.364 0 0 0-.255-.083.35.35 0 0 0-.246.083.366.366 0 0 0-.108.223h.703zM94.623 51.661h.343v.205h.005a.414.414 0 0 1 .163-.175.472.472 0 0 1 .366-.043v.312a.721.721 0 0 0-.166-.025.385.385 0 0 0-.194.043.35.35 0 0 0-.112.095.347.347 0 0 0-.063.188v.69h-.343v-1.29z"/>
        <path fill="#A1C0C3" fill-rule="evenodd" d="M101.763 32.462H81.205v-.411h20.558v.41z" clip-rule="evenodd"/>
        <rect width="1.645" height="1.439" x="83.262" y="28.967" fill="#9EB5B7" rx="1.439"/>
        <rect width="1.645" height="1.439" x="87.168" y="28.967" fill="#9EB5B7" rx="1.439"/>
        <rect width="1.645" height="1.439" x="91.074" y="28.967" fill="#9EB5B7" rx="1.439"/>
        <rect width="5.345" height="1.439" x="94.773" y="28.967" fill="#9EB5B7" rx="1.439"/>
        <rect width="1.645" height="1.439" x="83.262" y="34.518" fill="#9EB5B7" rx="1.439"/>
        <rect width="1.645" height="1.439" x="87.168" y="34.518" fill="#9EB5B7" rx="1.439"/>
        <rect width="1.645" height="1.439" x="91.074" y="34.518" fill="#9EB5B7" rx="1.439"/>
        <rect width="5.345" height="1.439" x="94.773" y="34.518" fill="#9EB5B7" rx="1.439"/>
        <path fill="#A1C0C3" fill-rule="evenodd" d="M101.5 38h-20v-.5h20v.5z" clip-rule="evenodd"/>
        <rect width="1.645" height="1.439" x="83.262" y="39.967" fill="#9EB5B7" rx="1.439"/>
        <rect width="1.645" height="1.439" x="87.168" y="39.967" fill="#9EB5B7" rx="1.439"/>
        <rect width="1.645" height="1.439" x="91.074" y="39.967" fill="#9EB5B7" rx="1.439"/>
        <rect width="5.345" height="1.439" x="94.773" y="39.967" fill="#9EB5B7" rx="1.439"/>
        <path fill="#2D5861" d="M42.431 65.222V52.896c0-.276.22-.5.495-.496 7.645.09 22.145 2.18 22.716 2.18.73 0 .163 7.92 0 9.626-.162 1.706 1.69 16.044 2.014 19.212.325 3.168-5.828 3.168-12.24 3.005-6.411-.162-14.77-2.437-14.365-3.005.406-.569 1.38-14.784 1.38-18.196z"/>
        <rect width="17.245" height="10.714" x="18.477" y="34.359" fill="#C9DDE1" rx="3" transform="rotate(-14.206 18.477 34.36)"/>
        <rect width="17.245" height="32.504" x="121.02" y="32.009" fill="#C9DDE1" rx="3" transform="rotate(11.774 121.02 32.009)"/>
        <rect width="9.027" height="8.651" x="18.553" y="52.48" fill="#C9DDE1" rx="3" transform="rotate(-16.676 18.553 52.48)"/>
        <rect width="9.027" height="8.651" x="34.619" y="47.222" fill="#C9DDE1" rx="3" transform="rotate(-4.56 34.62 47.222)"/>
    </g>
    <path fill="#E2EBED" d="M95.612 22.556a.392.392 0 0 1 .036-.15c.997-4.218-1.487-4.678-3.54-6.42-1.233-1.045 1.794-3.352 3.217-4.165-.355.534-1.406 1.64-2.082 2.55-.675.91.98 1.736 2.598 3.377 1.461 1.484.06 3.982-.193 4.657l-.036.15zM88.325 24.032a.453.453 0 0 1 .05-.195c1.8-7.306-1.862-7.48-5.55-10.847-2.072-1.891 2.555-6.02 5.035-7.423-1.44.952-2.609 1.896-3.633 4.393s2.096 3.124 4.907 5.942c2.588 2.594-.335 6.89-.76 7.935l-.049.195z"/>
    <path fill="#234951" d="M40.986 56.356c-1.208.087-2.78-1.7-3.737-3.056a.473.473 0 0 1 .4-.745h6.812c.453 0-1.662 3.67-3.475 3.801zM66.35 58.734c-1.209.087-2.78-1.7-3.738-3.056a.473.473 0 0 1 .4-.745h6.812c.454 0-1.662 3.67-3.474 3.801z"/>
    <path fill="#264F58" d="M53.548 60.878c5.072 1.269 8.97-1.207 13.013-3.638l-.88-2.477-21.815-1.786-1.41 1.974c0 .555 4.75 4.342 11.092 5.927z"/>
    <path fill="#FE7347" d="M63.75 25c-1.02-5.442-5.5-9.5-10.5-9.5s-8.75 3.75-10 8.5c-1.161 4.412-1.739 13.891-2.452 15.477-.714 1.585-4.439 10.858-4.439 11.413 0 .555 11.334 6.975 17.675 8.56 5.073 1.268 14.425-3.276 18.467-5.707-.871-3.144-2.916-9.812-4.121-11.334-1.506-1.902-3.744-12.685-4.63-17.409z"/>
    <path fill="url(#b)" d="M63.75 25c-1.02-5.442-5.5-9.5-10.5-9.5s-8.75 3.75-10 8.5c-1.161 4.412-1.739 13.891-2.452 15.477-.714 1.585-4.439 10.858-4.439 11.413 0 .555 11.334 6.975 17.675 8.56 5.073 1.268 14.425-3.276 18.467-5.707-.871-3.144-2.916-9.812-4.121-11.334-1.506-1.902-3.744-12.685-4.63-17.409z"/>
    <path fill="url(#c)" d="M45.475 27.884v-.133c0-1.968 2.219-7.376 8.163-7.376 5.945 0 8.164 5.47 8.164 7.434V31.447c0 4.625-5.275 5.303-8.164 5.303-2.888 0-8.163-.678-8.163-5.303v-3.563z"/>
    <path fill="url(#d)" d="M45.475 29.488v-.115c0-1.725 2.219-6.462 8.163-6.462 5.945 0 8.164 4.792 8.164 6.512v2.771c0 4.05-3.552 8.63-8.164 8.63-4.611 0-8.163-4.58-8.163-8.63v-2.706z"/>
    <ellipse cx="48.849" cy="33.166" fill="#FB8E8E" rx=".94" ry=".658"/>
    <ellipse cx="48.849" cy="33.166" fill="#FB8E8E" rx=".94" ry=".658"/>
    <ellipse cx="58.065" cy="33.166" fill="#FB8E8E" rx=".94" ry=".658"/>
    <ellipse cx="58.065" cy="33.166" fill="#FB8E8E" rx=".94" ry=".658"/>
    <path fill="#C4C4C4" d="M45.416 67.605l2.077-2.357a.698.698 0 1 0-1.092-.869l-1.831 2.553a.542.542 0 0 0 .846.673zM62.494 67.209l-2.077-2.358a.698.698 0 1 1 1.092-.868l1.831 2.553a.541.541 0 0 1-.846.673z"/>

    <path fill="#4A4A4A" d="M40.165 60.955c-.951-1.648-1.453-5.39-1.586-7.054h-.634c.106 1.718.73 5.612 1.744 7.45 1.014 1.84 2.272 3.25 2.853 3.805v-.713c-.396-.476-1.426-1.839-2.377-3.488zM51.05 26.697a.227.227 0 0 0-.068-.148c-.197-.187-.871-.736-1.962-.664a2.69 2.69 0 0 0-1.896.972.264.264 0 0 0-.055.19c.02.247.319.375.522.234.389-.269.96-.605 1.487-.699.522-.092 1.106.157 1.512.388.201.114.479-.042.46-.273z"/>
    <ellipse cx="49.222" cy="30.035" fill="#4A4A4A" rx=".591" ry=".65" transform="rotate(8.892 49.222 30.035)"/>
    <path fill="#4A4A4A" d="M55.761 26.25a.228.228 0 0 0 .006.161c.11.25.52 1.015 1.554 1.37a2.69 2.69 0 0 0 2.125-.168.263.263 0 0 0 .124-.154c.076-.236-.15-.468-.392-.417-.462.098-1.118.19-1.641.072-.518-.116-.96-.57-1.246-.94-.142-.183-.458-.145-.53.075z"/>
    <path fill="#BA6161" d="M55.435 35.849a.173.173 0 0 0-.066-.106 1.987 1.987 0 0 0-1.554-.305 2.056 2.056 0 0 0-1.338.928.202.202 0 0 0-.023.15c.04.184.28.251.42.124.267-.243.665-.556 1.056-.68.386-.122.854.007 1.184.142.164.066.359-.08.321-.253z"/>
    <ellipse fill="#4A4A4A" rx="1.182" ry="1.3" transform="scale(-.5 .5) rotate(3.749 -975.767 -1705.45)"/>
    <path fill="#FBCB9E" d="M38.659 48.275c.29.079 1.014.19.95.634-.063.444.476.475.476 1.268 0 .063-.021.152-.051.258l-.187.93c0 .582.238.872.238 1.19 0 .317-.634 1.188-.95 1.268-.318.079-2.696.317-3.25-1.11-.555-1.427-.397-3.17 0-3.963.317-.634.845-.845 1.189-1.03l.317.555c-.027.264 0 .713 0 .871 0 .112.237.476.634.476.317 0 .634-.238.634-.476v-.871z"/>
    <path fill="url(#e)" d="M38.659 48.275c.29.079 1.014.19.95.634-.063.444.476.475.476 1.268 0 .063-.021.152-.051.258l-.187.93c0 .582.238.872.238 1.19 0 .317-.634 1.188-.95 1.268-.318.079-2.696.317-3.25-1.11-.555-1.427-.397-3.17 0-3.963.317-.634.845-.845 1.189-1.03l.317.555c-.027.264 0 .713 0 .871 0 .112.237.476.634.476.317 0 .634-.238.634-.476v-.871z"/>
    <path fill="#4F4F4F" d="M35.185 46.047a1.742 1.742 0 0 1 1.738-1.896l1.888.003a1.745 1.745 0 0 1 1.735 1.907l-.054.586a1.1 1.1 0 0 1-1.095.998.66.66 0 0 0-.66.66v.682a.713.713 0 1 1-1.426 0v-.578a.779.779 0 0 0-.78-.774 1.317 1.317 0 0 1-1.31-1.194l-.036-.394z"/>
    <path fill="#726C6C" d="M40.004 44.156l-4.27-.007a.536.536 0 1 0-.002 1.072l1.583.002 1.427.005 1.26.002a.537.537 0 0 0 .002-1.074z"/>
    <path fill="#FBCB9E" d="M67.812 49.97c-.295.062-1.024.13-.987.577.037.447-.503.446-.55 1.238-.004.063.012.153.036.26l.13.94c-.034.581-.288.857-.307 1.173-.02.316.562 1.224.874 1.322.312.098 2.671.477 3.31-.914.638-1.392.584-3.142.235-3.956-.279-.652-.794-.894-1.126-1.1l-.35.536c.012.265-.041.712-.05.87-.008.112-.267.46-.662.437-.317-.019-.619-.275-.605-.512l.052-.87z"/>
    <path fill="url(#f)" d="M67.812 49.97c-.295.062-1.024.13-.987.577.037.447-.503.446-.55 1.238-.004.063.012.153.036.26l.13.94c-.034.581-.288.857-.307 1.173-.02.316.562 1.224.874 1.322.312.098 2.671.477 3.31-.914.638-1.392.584-3.142.235-3.956-.279-.652-.794-.894-1.126-1.1l-.35.536c.012.265-.041.712-.05.87-.008.112-.267.46-.662.437-.317-.019-.619-.275-.605-.512l.052-.87z"/>

    <path fill="#BDBDBD" d="M36.123 42.488a.396.396 0 0 1 .793 0v1.902a.396.396 0 1 1-.793 0v-1.902zM38.683 42.51a.396.396 0 0 1 .79-.046l.112 1.904a.396.396 0 0 1-.79.046l-.112-1.903z"/>
    <path fill="#4F4F4F" d="M71.413 47.955a1.742 1.742 0 0 0-1.622-1.996l-1.885-.11a1.745 1.745 0 0 0-1.845 1.8l.02.59a1.099 1.099 0 0 0 1.033 1.06.66.66 0 0 1 .619.698l-.04.681a.713.713 0 0 0 1.424.085l.034-.576a.778.778 0 0 1 .824-.727c.677.04 1.28-.443 1.38-1.114l.058-.391z"/>
    <path fill="#726C6C" d="M66.715 45.781l4.264.246a.536.536 0 1 1-.062 1.07l-1.581-.091-1.425-.08-1.258-.073a.537.537 0 0 1 .062-1.072z"/>
    <path fill="#BDBDBD" d="M70.579 46.584c.063-.185-.044-.344-.239-.355l-.083-.004a.494.494 0 0 0-.468.315c-.038.11.026.206.143.212l.366.02a.296.296 0 0 0 .28-.188zM67.912 46.5c.128-.197.037-.404-.182-.416l-.067-.004a.535.535 0 0 0-.454.242c-.088.135-.026.277.125.286l.34.019a.28.28 0 0 0 .238-.127z"/>
    <path fill="#4A4A4A" d="M59.595 63.888c1.799-.428 6.315-5.733 8.323-8.48h.713c-2.219 3.064-6.626 8.734-9.036 9.114-3.012.476-15.534 3.25-16.327 3.567-.792.317-1.585 1.823-1.743 2.298-.264.793.95.555 1.11 1.19v.792c-.16-.212-.81-.666-1.507-1.11-.872-.555.713-3.037 1.902-3.725 1.506-.872 11.572-2.457 16.565-3.646z"/>
    <path fill="#4A4A4A" fill-rule="evenodd" d="M35.74 27.543a.944.944 0 1 0 1.793-.587.944.944 0 0 0-1.793.587zm-2.332-10.158a3.775 3.775 0 0 0-2.592 3.838c.035.52.581.792 1.076.63.496-.162.74-.713.837-1.226a1.892 1.892 0 0 1 1.267-1.448 1.893 1.893 0 0 1 2.38 1.206c.588 1.793-2.176 2.45-1.222 5.364l.843-.276c.525-.171.782-.753.87-1.298.234-1.453 1.908-2.528 1.303-4.378a3.773 3.773 0 0 0-4.762-2.412zM40.346 19.033a.46.46 0 1 0 .876-.287.46.46 0 0 0-.876.287zm-1.138-4.96a1.843 1.843 0 0 0-1.266 1.874c.017.254.284.387.526.308.242-.08.36-.348.408-.598.06-.32.289-.6.619-.708a.924.924 0 0 1 1.162.59c.287.875-1.063 1.195-.597 2.618.484-.158.75-.72.975-1.177.259-.526.734-1.007.498-1.729a1.842 1.842 0 0 0-2.325-1.177z" clip-rule="evenodd"/>
    <defs>
        <linearGradient id="b" x1="54.43" x2="69.507" y1="14.906" y2="44.938" gradientUnits="userSpaceOnUse">
            <stop offset=".022" stop-color="#DE5930"/>
            <stop offset="1" stop-color="#FE9777"/>
        </linearGradient>
        <radialGradient id="c" cx="0" cy="0" r="1" gradientTransform="matrix(.18085 6.5625 -5.23983 .1444 53.82 26.938)" gradientUnits="userSpaceOnUse">
            <stop offset=".11" stop-color="#CA502A"/>
            <stop offset="1" stop-color="#722E19"/>
        </radialGradient>
        <linearGradient id="d" x1="53.638" x2="53.638" y1="22.911" y2="40.824" gradientUnits="userSpaceOnUse">
            <stop stop-color="#FFC58F"/>
            <stop offset="1" stop-color="#F3CEAB"/>
        </linearGradient>
        <linearGradient id="e" x1="40.705" x2="38.095" y1="48.699" y2="54.226" gradientUnits="userSpaceOnUse">
            <stop stop-color="#EDA969"/>
            <stop offset="1" stop-color="#FBCB9E"/>
        </linearGradient>
        <linearGradient id="f" x1="65.744" x2="68.021" y1="50.272" y2="55.945" gradientUnits="userSpaceOnUse">
            <stop stop-color="#EDA969"/>
            <stop offset="1" stop-color="#FBCB9E"/>
        </linearGradient>
    </defs>
</svg>
