<svg xmlns="http://www.w3.org/2000/svg" width="131" height="88" fill="none" viewBox="0 0 131 88">
    <mask id="a" width="113" height="84" x="9" y="2" maskUnits="userSpaceOnUse">
        <path fill="#C4C4C4" d="M103.328 75.792C69.04 89.868 54.952 85.972 35.814 78.22 18.516 71.212 9.5 64.201 9.5 50.795c0-22.178 15.682-31.149 26.314-37.131C62.926-1.592 65.053.8 85.52 10.024c6.315 2.357 19.515 10.949 24.72 17.958 21.264 28.638 8.645 41.424-6.911 47.81z"/>
    </mask>
    <g mask="url(#a)">
        <path fill="#ECF4F7" d="M143.205 24.897c-7.079 39.559-39.403 58.771-76.075 58.771-36.672 0-66.49-3.787-66.49-32.983 0-29.197-18.193-63.763 13.543-66.64 31.735-2.877 39.213 14.484 73.633-4.936 42.721-36.322 55.389 22.056 55.389 45.788z"/>
        <path fill="#C9DDE1" d="M103.595 80.659c-19.112 6.518 6.062 4.705-28.427 4.705s-37.21 5.936-61.414-17.81c-2.28-2.238-7.34-23.59 10.3-36.9 18.939-12.107 27.4-12.107 43.216-12.107 31.225 0 46.561 12.423 50.147 32.503 3.456 19.35-8.746 20.5-13.822 29.609z"/>
        <path fill="#BDCFD3" d="M54.573 20.583c0-.298.26-.534.557-.506l12.443 1.168a.489.489 0 0 1 .433.597l-1.293 5.767a.512.512 0 0 1-.548.397l-11.15-1.113a.488.488 0 0 1-.442-.487v-5.823z"/>
        <path fill="#E1C092" d="M21.004 61.473l8.383-10.694.069 1.595-6.778 8.645-1.674.454z"/>
        <path fill="url(#b)" d="M21.004 61.473l8.383-10.694.069 1.595-6.778 8.645-1.674.454z"/>
        <path fill="#9AC5CF" d="M29.096 66.77l8.382-10.694-1.497.406a.54.54 0 0 0-.285.186l-6.56 8.37a.464.464 0 0 0-.102.305l.062 1.426z"/>
        <path fill="#BDCFD3" d="M30.064 65.817l6.42-8.19.995-1.55-8.383 10.693.968-.953zM29.221 66.853l-8.216-5.378.963 1.284a.484.484 0 0 0 .122.114l5.334 3.492c.047.03.1.054.157.069l1.64.42z"/>
        <path fill="#A6C8CF" d="M29.22 66.852l-8.216-5.379 1.433-.388a.55.55 0 0 1 .442.066l6.072 3.975a.456.456 0 0 1 .21.361l.06 1.365zM37.605 56.16l-8.216-5.38.058 1.365a.456.456 0 0 0 .211.362l5.964 3.904a.547.547 0 0 0 .409.074l1.574-.326z"/>
        <path fill="#BDCFD3" d="M37.605 56.159l-8.216-5.379 2.308.519c.062.014.12.038.173.072l5.247 3.436a.463.463 0 0 1 .197.266l.291 1.086z"/>
        <path fill="#99C1C9" d="M22.682 61.02l6.777-8.646 6.473 4.237-6.777 8.646z"/>
        <path fill="#BDCFD3" d="M21.004 61.473l8.383-10.694.856-.07c.882-.071 1.424.838.898 1.506l-6.653 8.434c-.167.21-.416.353-.692.395l-2.792.429z"/>
        <path fill="#9AC5CF" d="M92.377 28.682l10.327 9.163-1.557-.157a.541.541 0 0 1-.306-.131l-8.094-7.182a.462.462 0 0 1-.153-.275l-.217-1.418zM85.441 35.207L95.77 44.37l-.217-1.418a.463.463 0 0 0-.153-.276l-8.094-7.18a.542.542 0 0 0-.306-.132l-1.558-.157z"/>
        <path fill="#BDCFD3" d="M85.39 35.214c-.43.057-.601.54-.29.815l7.108 6.307a.516.516 0 0 0 .088.063l3.474 1.971-10.328-9.163-.052.007z"/>
        <path fill="#BDCFD3" d="M85.335 35.307l7.04-6.626-1.53.678a.525.525 0 0 0-.147.097l-4.565 4.296a.477.477 0 0 0-.102.138l-.697 1.417z"/>
        <path fill="#A6C8CF" d="M85.334 35.31l7.04-6.627.207 1.349a.453.453 0 0 1-.143.4l-5.19 4.884a.552.552 0 0 1-.433.142l-1.481-.148zM95.665 44.472l7.041-6.626-1.482-.149a.551.551 0 0 0-.432.142l-5.099 4.799a.455.455 0 0 0-.146.368l.118 1.466z"/>
        <path fill="#BDCFD3" d="M95.662 44.47l7.04-6.627-.487 1.46a.46.46 0 0 1-.12.189l-4.892 4.728a.545.545 0 0 1-.332.148l-1.21.101z"/>
        <path fill="#99C1C9" d="M92.617 30.262l8.35 7.408-5.547 5.22-8.35-7.408z"/>
        <path fill="#BDCFD3" d="M92.371 28.68l10.328 9.163.545-.194c.709-.253.896-1.091.351-1.575l-8.682-7.703a1.116 1.116 0 0 0-1.106-.203l-1.436.512zM38.34 29.449a1.086 1.086 0 0 1 1.367-.38l9.63 4.735c.53.262.685.914.33 1.4l-3.283 4.495c-.31.425-.901.567-1.36.328l-9.236-4.828a.923.923 0 0 1-.34-1.346l2.893-4.404zM101.997 61.243a.926.926 0 0 1-.62 1.175l-10.35 3.235c-.571.179-1.2-.163-1.349-.733l-1.375-5.252a.926.926 0 0 1 .658-1.133l10.158-2.911a1.078 1.078 0 0 1 1.311.692l1.567 4.927zM107.282 51.13a.449.449 0 0 1 .094-.652l2.829-2.066a.555.555 0 0 1 .764.115l1.013 1.416a.45.45 0 0 1-.118.64l-2.814 1.948a.556.556 0 0 1-.739-.103l-1.029-1.298zM19.13 45.078a.449.449 0 0 1 .093-.652l2.83-2.066a.554.554 0 0 1 .763.114l1.014 1.416a.45.45 0 0 1-.119.64l-2.813 1.948a.556.556 0 0 1-.739-.103l-1.03-1.297z"/>
    </g>
    <path fill="#BDCFD3" d="M77.472 70.006c0 6.895-1.526 8.662-9.917 11.974-6.356 2.509-15.764-5.08-15.764-11.974s5.05-12.483 13.476-12.483c8.426 0 12.205 5.59 12.205 12.483z"/>
    <path fill="url(#c)" d="M46.302 71.804c-1.151-1.442-1.439-15.016-1.439-21.623L48.46 49.1l2.878 21.983-2.878 3.244c-.24-.24-1.007-1.081-2.158-2.523z"/>
    <path fill="url(#d)" d="M47.742 38.649c3.165-4.037 7.793-6.126 9.352-5.765H73.28c1.32.84 5.396 3.243 6.834 5.765 1.428 2.503 3.118 7.688 3.238 10.45-.96 1.082-3.094 3.388-3.957 3.965-1.08.72-26.617 1.442-29.495.72-2.302-.576-5.155-3.002-6.474-4.684.48-2.042 1.15-6.415 4.316-10.451z"/>
    <path fill="#2D5861" d="M61.407 77.928c-1.94 0-2.427-2.91-2.506-4.546a.48.48 0 0 1 .488-.5h3.715c.26 0 .478.2.487.46.053 1.628-.23 4.586-2.184 4.586zM69.32 77.928c-1.939 0-2.426-2.91-2.505-4.546a.48.48 0 0 1 .488-.5h3.716c.26 0 .477.2.486.46.053 1.628-.23 4.586-2.184 4.586z"/>
    <path fill="url(#e)" d="M59.251 74.326c.576-.576-2.753-1.681-3.232-2.162l-4.317-1.441c-.72.6-4.033 1.225-4.321 1.802-.36.72 1.803 2.883 4.677 3.243 2.873.36 6.474-.72 7.193-1.442z"/>
    <path fill="url(#f)" d="M78.674 76.491c2.302 0 3.357-1.682 3.597-2.523-1.918-.6-6.043-1.73-7.194-1.441-1.439.36-.72 1.441-.72 2.162 0 .72 1.44 1.802 4.317 1.802z"/>
    <path fill="url(#g)" d="M48.816 49.818h33.811l-1.25-5.008a1 1 0 0 0-.97-.758h-29.37a1 1 0 0 0-.97.758l-1.25 5.008z"/>
    <path fill="url(#h)" d="M51.336 51.982h28.775v19.461H51.336z"/>
    <path fill="#E1C092" d="M48.816 49.818h33.811l-2.966 2.312a1 1 0 0 1-.614.211h-26.65a1 1 0 0 1-.614-.211l-2.967-2.312z"/>
    <path fill="url(#i)" d="M48.816 49.818h33.811l-2.966 2.312a1 1 0 0 1-.614.211h-26.65a1 1 0 0 1-.614-.211l-2.967-2.312z"/>
    <path fill="#E1C092" d="M48.816 73.244h33.811l-2.966-2.311a1 1 0 0 0-.614-.212h-26.65a1 1 0 0 0-.614.212l-2.967 2.311z"/>
    <path fill="url(#j)" d="M48.816 73.244h33.811l-2.966-2.311a1 1 0 0 0-.614-.212h-26.65a1 1 0 0 0-.614.212l-2.967 2.311z"/>
    <path fill="url(#k)" d="M52.496 76.262a1 1 0 0 0 .634.226h25.183a1 1 0 0 0 .634-.226l3.68-3.017h-33.81l3.68 3.017z"/>
    <path fill="url(#l)" d="M48.818 73.604V49.818l-3.992 3.667a1 1 0 0 0-.324.737V69.2a1 1 0 0 0 .323.737l3.993 3.667z"/>
    <path fill="url(#m)" d="M48.82 73.604V49.818l2.851 2.223a1 1 0 0 1 .386.789v17.763a1 1 0 0 1-.386.788l-2.852 2.223z"/>
    <path fill="url(#n)" d="M82.628 73.604V49.818l-2.852 2.223a1 1 0 0 0-.385.789v17.442a1 1 0 0 0 .334.747l2.903 2.585z"/>
    <path fill="url(#o)" d="M82.629 73.604V49.818l2.087 5.228a1 1 0 0 1 .071.37v15.296a1 1 0 0 1-.24.65l-1.918 2.242z"/>
    <path fill="#4A4A4A" fill-rule="evenodd" d="M58.565 54.303a.843.843 0 0 0 1.177.19.846.846 0 0 0 .206-1.177l-.013-.018a.842.842 0 0 0-1.177-.19.846.846 0 0 0-.206 1.177l.013.018zm-4.727-8.13a3.407 3.407 0 0 0-1.196 4.01c.168.431.708.515 1.09.243.382-.273.448-.807.391-1.269-.073-.6.176-1.224.7-1.597a1.701 1.701 0 0 1 2.368.4c.985 1.386-1.214 2.692.386 4.945l.638-.454c.412-.294.48-.868.411-1.365-.183-1.312.963-2.685-.051-4.113a3.392 3.392 0 0 0-4.737-.8zM62.475 51.596a.58.58 0 1 0 1.16-.052.58.58 0 0 0-1.16.052zm.3-6.403a2.32 2.32 0 0 0-2.166 1.848c-.065.313.214.564.533.55.32-.015.555-.3.696-.587.181-.37.552-.632.989-.651a1.163 1.163 0 0 1 1.21 1.108c.051 1.16-1.692 1.093-1.607 2.978l.16-.008c.55-.024.975-.533 1.314-.968.482-.616 1.336-1.028 1.29-2.054a2.319 2.319 0 0 0-2.419-2.216z" clip-rule="evenodd"/>
    <path fill="#757373" fill-rule="evenodd" d="M62.664 55.433a7.234 7.234 0 0 1 2.681-.849.288.288 0 0 1 .064.574 6.648 6.648 0 0 0-2.468.781.288.288 0 1 1-.277-.506zm5.125-.408a.288.288 0 0 1 .358-.197 7.24 7.24 0 0 1 2.494 1.3.29.29 0 0 1-.36.45 6.663 6.663 0 0 0-2.296-1.195.289.289 0 0 1-.196-.358zM60.916 57.2c.124.1.144.281.045.406a6.685 6.685 0 0 0-1.194 2.3.288.288 0 1 1-.553-.162c.265-.909.706-1.76 1.297-2.5.1-.124.28-.144.405-.044zm-1.691 5.033c.158-.018.3.096.318.255a6.688 6.688 0 0 0 .78 2.473.289.289 0 0 1-.506.277 7.264 7.264 0 0 1-.847-2.687.289.289 0 0 1 .255-.318zM72.06 58.17a.288.288 0 0 1 .39.115 7.264 7.264 0 0 1 .848 2.686.289.289 0 1 1-.573.064 6.688 6.688 0 0 0-.78-2.473.289.289 0 0 1 .115-.392zm.798 5.25c.153.045.24.205.196.358a7.264 7.264 0 0 1-1.297 2.5.29.29 0 0 1-.45-.36c.544-.682.95-1.464 1.194-2.301a.288.288 0 0 1 .357-.197zm-11.276 3.57c.1-.124.28-.145.405-.045.68.545 1.46.952 2.296 1.196a.289.289 0 0 1-.162.554 7.24 7.24 0 0 1-2.494-1.299.29.29 0 0 1-.045-.406zm5.023 1.695a.289.289 0 0 1 .254-.32 6.648 6.648 0 0 0 2.469-.78.288.288 0 1 1 .277.506 7.235 7.235 0 0 1-2.682.849.288.288 0 0 1-.318-.255z" clip-rule="evenodd"/>
    <path fill="url(#p)" d="M53.031 15.004v-.167c.001-2.486 3.193-10.396 11.746-10.396 8.552 0 11.746 7.99 11.745 10.47v10.48c0 8.602-7.913 12.44-11.745 12.44-3.833 0-10.667-3.478-11.746-12.44V15.004z"/>
    <path fill="#4A4A4A" d="M60.248 22.282a.327.327 0 0 0-.168-.162c-.363-.146-1.556-.523-2.977.152a3.875 3.875 0 0 0-2.02 2.312.38.38 0 0 0 .027.283c.159.32.625.332.823.035.378-.566.962-1.32 1.618-1.726.649-.4 1.561-.378 2.226-.284.33.047.62-.311.471-.61z"/>
    <path fill="#6F6F6F" d="M62.35 33.22a.488.488 0 0 0-.654-.215c-.499.248-1.362.651-2.263.952-.9.3-1.219.697-1.332.942-.054.116.042.222.17.222 0 0 .233 0 1.627-.466.87-.29 1.7-.597 2.2-.786a.47.47 0 0 0 .252-.648zM66.427 32.988a.488.488 0 0 1 .655-.216c.498.248 1.362.652 2.263.953.899.3 1.218.697 1.331.941.054.117-.041.223-.17.223 0 0-.232 0-1.626-.466-.871-.29-1.7-.598-2.2-.787a.47.47 0 0 1-.253-.648z"/>
    <path fill="#4A4A4A" d="M73.54 25.16a.328.328 0 0 0 .043-.23c-.076-.384-.412-1.591-1.753-2.415a3.862 3.862 0 0 0-3.036-.433.38.38 0 0 0-.221.177c-.181.308.063.706.42.71.68.008 1.629.086 2.326.415.69.326 1.17 1.104 1.454 1.714.141.302.598.349.767.062z"/>
    <path fill="#BA6161" d="M65.928 35.908c-.012-.244-.083-.486-.259-.656-.228-.219-.617-.483-1.154-.469-.57.016-.963.36-1.178.616-.142.169-.188.392-.177.612.01.202.068.403.221.534.246.21.726.471 1.52.333.64-.112.898-.29.997-.44.1-.15.039-.35.03-.53z"/>
    <path fill="#FBD3AE" d="M57.352 17.477c0-.221.198-.39.417-.356 1.15.179 4.438.655 6.776.655 2.339 0 5.627-.476 6.777-.655a.361.361 0 0 1 .417.356c0 .173-.122.32-.292.35-.973.163-4.19.67-6.902.67-2.712 0-5.928-.507-6.9-.67a.352.352 0 0 1-.293-.35zM57.352 15.672c0-.22.198-.39.417-.356 1.15.179 4.438.655 6.776.655 2.339 0 5.627-.476 6.777-.655a.361.361 0 0 1 .417.356c0 .173-.122.32-.292.35-.973.164-4.19.67-6.902.67-2.712 0-5.928-.506-6.9-.67a.352.352 0 0 1-.293-.35z"/>
    <path fill="url(#q)" d="M51.29 22.244a1.608 1.608 0 1 1 3.182-.337v2.045a1.392 1.392 0 0 1-2.753.291l-.428-2z"/>
    <path fill="url(#r)" d="M78.514 22.244a1.608 1.608 0 1 0-3.181-.337v2.045a1.392 1.392 0 0 0 2.753.291l.428-2z"/>
    <ellipse fill="#FFDDBE" rx="3.256" ry="1.441" transform="matrix(.41223 -.28296 .28222 .41274 58.618 8.845)"/>
    <defs>
        <linearGradient id="b" x1="24.432" x2="26.648" y1="54.938" y2="56.675" gradientUnits="userSpaceOnUse">
            <stop stop-color="#DEBC8C"/>
            <stop offset="1" stop-color="#D4B181"/>
        </linearGradient>
        <linearGradient id="c" x1="48.1" x2="48.1" y1="49.1" y2="74.327" gradientUnits="userSpaceOnUse">
            <stop stop-color="#FFC58F"/>
            <stop offset="1" stop-color="#F3CEAB"/>
        </linearGradient>
        <linearGradient id="d" x1="65.007" x2="62.331" y1="37.208" y2="57.451" gradientUnits="userSpaceOnUse">
            <stop offset=".022" stop-color="#DE5930"/>
            <stop offset="1" stop-color="#FE9777"/>
        </linearGradient>
        <linearGradient id="e" x1="53.02" x2="53.02" y1="70.723" y2="76.754" gradientUnits="userSpaceOnUse">
            <stop stop-color="#EFB47B"/>
            <stop offset="1" stop-color="#F3CEAB"/>
        </linearGradient>
        <linearGradient id="f" x1="78.551" x2="78.551" y1="72.481" y2="76.491" gradientUnits="userSpaceOnUse">
            <stop stop-color="#EFB47B"/>
            <stop offset="1" stop-color="#F3CEAB"/>
        </linearGradient>
        <linearGradient id="g" x1="65.722" x2="65.722" y1="49.818" y2="44.052" gradientUnits="userSpaceOnUse">
            <stop stop-color="#E5CCA7"/>
            <stop offset=".972" stop-color="#F5D8AD"/>
        </linearGradient>
        <linearGradient id="h" x1="40.056" x2="40.056" y1="25.991" y2="45.452" gradientUnits="userSpaceOnUse">
            <stop stop-color="#DAB888"/>
            <stop offset="1" stop-color="#D1AE7C"/>
        </linearGradient>
        <linearGradient id="i" x1="67.161" x2="67.161" y1="46.575" y2="53.422" gradientUnits="userSpaceOnUse">
            <stop stop-color="#DEBC8C"/>
            <stop offset="1" stop-color="#D4B181"/>
        </linearGradient>
        <linearGradient id="j" x1="67.161" x2="67.161" y1="76.488" y2="69.64" gradientUnits="userSpaceOnUse">
            <stop stop-color="#D4B181"/>
            <stop offset="1" stop-color="#DEBC8C"/>
        </linearGradient>
        <linearGradient id="k" x1="65.722" x2="65.722" y1="74.686" y2="73.245" gradientUnits="userSpaceOnUse">
            <stop stop-color="#F0DCBE"/>
            <stop offset="1" stop-color="#E4CDAB"/>
        </linearGradient>
        <linearGradient id="l" x1="46.66" x2="46.66" y1="49.818" y2="73.604" gradientUnits="userSpaceOnUse">
            <stop stop-color="#F0DCBE"/>
            <stop offset="1" stop-color="#E4CDAB"/>
        </linearGradient>
        <linearGradient id="m" x1="52.057" x2="49.179" y1="58.828" y2="58.828" gradientUnits="userSpaceOnUse">
            <stop offset=".414" stop-color="#DEBE93"/>
            <stop offset="1" stop-color="#E4C9A2"/>
        </linearGradient>
        <linearGradient id="n" x1="79.391" x2="85.146" y1="58.828" y2="58.469" gradientUnits="userSpaceOnUse">
            <stop stop-color="#DEBE93"/>
            <stop offset="1" stop-color="#E4C9A2"/>
        </linearGradient>
        <linearGradient id="o" x1="83.708" x2="83.708" y1="49.818" y2="73.604" gradientUnits="userSpaceOnUse">
            <stop stop-color="#F0DCBE"/>
            <stop offset="1" stop-color="#E4CDAB"/>
        </linearGradient>
        <linearGradient id="p" x1="64.777" x2="64.777" y1="4.441" y2="37.831" gradientUnits="userSpaceOnUse">
            <stop stop-color="#FFC58F"/>
            <stop offset="1" stop-color="#F3CEAB"/>
        </linearGradient>
        <linearGradient id="q" x1="52.673" x2="52.673" y1="20.299" y2="25.344" gradientUnits="userSpaceOnUse">
            <stop stop-color="#FFC58F"/>
            <stop offset="1" stop-color="#F3CEAB"/>
        </linearGradient>
        <linearGradient id="r" x1="77.131" x2="77.131" y1="20.299" y2="25.344" gradientUnits="userSpaceOnUse">
            <stop stop-color="#FFC58F"/>
            <stop offset="1" stop-color="#F3CEAB"/>
        </linearGradient>
    </defs>
</svg>
