<svg xmlns="http://www.w3.org/2000/svg" width="24" height="24" fill="none" viewBox="0 0 24 24">
    <path fill="#2D9CDB" d="M1.5 2.942C1.5 1.317 2.832 0 4.476 0h15.733c1.644 0 2.976 1.317 2.976 2.942v10.34c0 5.92-4.854 10.718-10.842 10.718C6.354 24 1.5 19.202 1.5 13.283V2.942z"/>
    <path fill="#FFE081" fill-rule="evenodd" d="M12.751 5.563l-.419-.202-.45.194-.423.215.116-.46.116-.459-.491-.426h.726l.179-.393.196-.432.196.432.178.393h.77l-.518.436.125.45.127.456-.428-.204zm-1.737 1.886a1.32 1.32 0 1 1-1.986 1.038l-.934.194.141 1.506h-.453L7.9 8.656l-.222.039.456-1.363 2.388-1.337 1.324.415-.831 1.039zM8.017 18c5.073-3.164 6.535-7.161 4.385-11.992.347 1.666.104 2.86-.727 3.582.527 1.464.484 2.866-.13 4.206.17-1.728.023-2.99-.44-3.79-2.69.974-4.091 2.427-4.205 4.36.986-1.575 1.93-2.025 2.83-1.35.65 1.118.079 2.78-1.713 4.984zm8.045-.077l-3.582-2.051-2.465 1.4c2.972-2.624 4.278-5.288 3.919-7.993l.416.805 3.944.52-2.933 3.01.701 4.31z" clip-rule="evenodd"/>
    <path fill="#fff" fill-rule="evenodd" d="M12.751 5.563l-.419-.202-.45.194-.423.215.116-.46.116-.459-.491-.426h.726l.179-.393.196-.432.196.432.178.393h.77l-.518.436.125.45.127.456-.428-.204zm-1.737 1.886a1.32 1.32 0 1 1-1.986 1.038l-.934.194.141 1.506h-.453L7.9 8.656l-.222.039.456-1.363 2.388-1.337 1.324.415-.831 1.039zM8.017 18c5.073-3.164 6.535-7.161 4.385-11.992.347 1.666.104 2.86-.727 3.582.527 1.464.484 2.866-.13 4.206.17-1.728.023-2.99-.44-3.79-2.69.974-4.091 2.427-4.205 4.36.986-1.575 1.93-2.025 2.83-1.35.65 1.118.079 2.78-1.713 4.984zm8.045-.077l-3.582-2.051-2.465 1.4c2.972-2.624 4.278-5.288 3.919-7.993l.416.805 3.944.52-2.933 3.01.701 4.31z" clip-rule="evenodd"/>
</svg>
