<svg xmlns="http://www.w3.org/2000/svg" width="75" height="75" fill="none" viewBox="0 0 75 75">
    <path fill="#BDBDBD" d="M6.36 23.03L37.519 5.042l1.012 1.753L7.373 24.784z"/>
    <path fill="#BDBDBD" d="M68.432 23.03L37.275 5.042l-1.013 1.754L67.42 24.784z"/>
    <rect width="69.859" height="45.56" x="2.52" y="22.724" fill="#ED7161" rx="5"/>
    <path fill="#2D5861" d="M2.52 25.224a2.5 2.5 0 0 1 2.5-2.5h64.858a2.5 2.5 0 0 1 2.5 2.5v4.485H2.52v-4.485z"/>
    <path fill="#fff" d="M8.594 22.724h5.533l4.05 7.014h-5.533l-4.05-7.014zM2.52 28.293v-3.291s0-1.013.759-1.519l3.76 6.256H2.52v-1.447zM19.73 22.724h5.534l4.05 7.014H23.78l-4.05-7.014zM30.867 22.724H36.4l4.05 7.014h-5.533l-4.05-7.014zM42.004 22.724h5.533l4.05 7.014h-5.533l-4.05-7.014zM53.14 22.724h5.534l4.05 7.014H57.19l-4.05-7.014zM64.28 22.724h5.532l2.567 4.445-.036 2.57H68.33l-4.05-7.015z"/>
    <path fill="#2D5861" d="M72.48 65.577a2.5 2.5 0 0 1-2.5 2.5H5.123a2.5 2.5 0 0 1-2.5-2.5v-4.486H72.48v4.486z"/>
    <path fill="#fff" d="M66.406 68.077h-5.533l-4.05-7.014h5.533l4.05 7.014zM72.48 62.508V65.8s0 1.013-.759 1.519l-3.76-6.256h4.52v1.446zM55.27 68.077h-5.534l-4.05-7.014h5.533l4.05 7.014zM44.133 68.077H38.6l-4.05-7.014h5.533l4.05 7.014zM32.996 68.077h-5.533l-4.05-7.014h5.533l4.05 7.014zM21.86 68.077h-5.534l-4.05-7.014h5.533l4.05 7.014zM10.72 68.077H5.189L2.62 63.632l.036-2.57H6.67l4.05 7.015zM25.108 37.811c.391 0 .738.057 1.039.172.307.114.596.286.867.515l-.705.84a2.311 2.311 0 0 0-.55-.325 1.542 1.542 0 0 0-.579-.109c-.422 0-.756.178-1.003.533-.24.356-.361.904-.361 1.645 0 .728.12 1.27.361 1.626.247.35.587.524 1.021.524.229 0 .437-.042.623-.127.187-.09.389-.216.606-.379l.66.85a2.83 2.83 0 0 1-.859.578c-.331.15-.699.225-1.102.225-.578 0-1.081-.126-1.509-.38-.428-.252-.762-.626-1.003-1.12-.235-.5-.352-1.099-.352-1.797 0-.681.12-1.268.361-1.762.247-.494.584-.867 1.012-1.12a2.817 2.817 0 0 1 1.473-.389zM29.622 39.275c.735 0 1.31.226 1.726.677.416.446.623 1.072.623 1.88 0 .511-.096.96-.289 1.346-.187.38-.458.674-.813.885-.35.211-.765.316-1.247.316-.729 0-1.304-.222-1.726-.668-.415-.452-.623-1.081-.623-1.889 0-.512.093-.957.28-1.337a2.13 2.13 0 0 1 .813-.894c.356-.211.774-.316 1.256-.316zm0 1.048a.706.706 0 0 0-.65.37c-.145.241-.217.617-.217 1.13 0 .523.07.906.208 1.147.144.24.364.361.66.361a.71.71 0 0 0 .65-.361c.144-.247.216-.627.216-1.139 0-.524-.072-.906-.216-1.147-.139-.24-.356-.361-.65-.361zM38.124 39.275c.38 0 .684.13.912.388.23.253.344.606.344 1.057v3.506h-1.428v-3.262c0-.428-.135-.641-.406-.641a.578.578 0 0 0-.398.153 1.627 1.627 0 0 0-.334.47v3.28h-1.428v-3.262c0-.428-.135-.641-.406-.641a.581.581 0 0 0-.398.162 1.655 1.655 0 0 0-.334.461v3.28H32.82v-4.798h1.247l.1.56a1.87 1.87 0 0 1 .614-.533c.229-.12.488-.18.777-.18.271 0 .503.066.696.198.199.133.343.32.433.56.193-.258.404-.448.633-.569.235-.126.503-.19.804-.19zM41.88 39.428v4.798h-1.428v-4.798h1.428zm-.723-2.53a.82.82 0 0 1 .606.235c.162.15.244.344.244.579 0 .234-.082.43-.244.587a.838.838 0 0 1-.606.226.838.838 0 0 1-.605-.226.797.797 0 0 1-.235-.587c0-.235.078-.428.235-.579a.82.82 0 0 1 .605-.235zM45.812 39.275c.416 0 .741.126.976.38.235.252.352.608.352 1.065v3.506h-1.427v-3.262c0-.24-.04-.406-.117-.497-.073-.096-.184-.144-.335-.144-.289 0-.566.208-.831.623v3.28h-1.428v-4.798h1.247l.1.57c.204-.241.424-.422.66-.543.24-.12.508-.18.803-.18zM52.635 39.708c-.313.127-.774.19-1.382.19.313.133.542.295.686.488.145.193.217.443.217.75s-.081.584-.244.831c-.162.241-.397.43-.704.57-.302.138-.657.207-1.067.207-.192 0-.376-.018-.55-.054a.276.276 0 0 0-.118.117.339.339 0 0 0-.036.154c0 .09.033.163.1.217.071.048.213.072.424.072h.723c.367 0 .69.06.966.18.277.121.491.287.642.498.15.21.226.448.226.713 0 .5-.217.889-.65 1.166-.429.283-1.049.425-1.862.425-.584 0-1.045-.064-1.383-.19-.337-.12-.575-.292-.713-.515-.133-.223-.199-.503-.199-.84h1.283a.63.63 0 0 0 .081.343c.06.084.166.148.316.19.151.042.368.063.651.063.392 0 .663-.048.813-.145a.436.436 0 0 0 .226-.397.404.404 0 0 0-.172-.343c-.114-.085-.286-.127-.515-.127H49.7c-.494 0-.865-.087-1.112-.262-.24-.18-.361-.41-.361-.687 0-.174.051-.343.154-.506.102-.168.24-.307.415-.415-.301-.163-.52-.353-.66-.57a1.546 1.546 0 0 1-.198-.804c0-.536.193-.96.578-1.273.386-.32.895-.48 1.527-.48.482.013.889-.035 1.22-.144a5.117 5.117 0 0 0 1.039-.479l.334 1.057zm-2.557.506c-.223 0-.4.073-.533.217-.126.139-.19.331-.19.578 0 .26.064.461.19.606.133.138.31.207.533.207.235 0 .413-.069.533-.207.127-.139.19-.347.19-.624 0-.518-.241-.777-.723-.777zM29.432 47.298c.47 0 .876.066 1.22.198.349.133.665.335.948.606l-.687.804c-.427-.35-.885-.524-1.373-.524-.259 0-.464.054-.614.163a.511.511 0 0 0-.226.451c0 .139.033.253.1.344.066.084.183.165.352.243.168.079.421.172.758.28.639.205 1.109.458 1.41.76.301.295.452.716.452 1.265 0 .391-.1.737-.298 1.038-.2.296-.485.527-.859.696-.373.163-.816.244-1.328.244a3.58 3.58 0 0 1-1.364-.244 3.247 3.247 0 0 1-1.012-.65l.75-.822c.24.204.488.358.74.46.26.103.54.154.84.154.308 0 .549-.066.724-.199a.678.678 0 0 0 .27-.57.703.703 0 0 0-.099-.388.842.842 0 0 0-.343-.289 4.586 4.586 0 0 0-.705-.27c-.692-.212-1.186-.47-1.481-.778-.29-.307-.434-.696-.434-1.165 0-.362.096-.678.289-.949.193-.277.46-.488.804-.632.344-.151.732-.226 1.166-.226zM34.638 48.761c.735 0 1.31.226 1.726.678.416.446.623 1.072.623 1.88 0 .511-.096.96-.289 1.345-.187.38-.458.675-.813.886-.35.21-.765.316-1.247.316-.729 0-1.304-.223-1.725-.669-.416-.451-.624-1.08-.624-1.888 0-.512.093-.957.28-1.337a2.13 2.13 0 0 1 .813-.894c.356-.211.774-.317 1.256-.317zm0 1.048a.706.706 0 0 0-.65.37c-.145.242-.217.618-.217 1.13 0 .524.07.907.208 1.148.144.24.364.361.66.361a.71.71 0 0 0 .65-.361c.144-.247.216-.627.216-1.139 0-.524-.072-.906-.216-1.147-.139-.241-.356-.362-.65-.362zM39.914 48.761c.735 0 1.31.226 1.726.678.416.446.624 1.072.624 1.88 0 .511-.097.96-.29 1.345-.186.38-.457.675-.813.886-.349.21-.765.316-1.247.316-.728 0-1.304-.223-1.725-.669-.416-.451-.624-1.08-.624-1.888 0-.512.094-.957.28-1.337a2.13 2.13 0 0 1 .814-.894c.355-.211.774-.317 1.255-.317zm0 1.048a.706.706 0 0 0-.65.37c-.145.242-.217.618-.217 1.13 0 .524.07.907.208 1.148.145.24.364.361.66.361a.71.71 0 0 0 .65-.361c.145-.247.217-.627.217-1.139 0-.524-.072-.906-.217-1.147-.139-.241-.355-.362-.65-.362zM45.923 48.761c.415 0 .74.127.975.38s.353.608.353 1.066v3.505h-1.428v-3.261c0-.241-.039-.407-.117-.497-.073-.096-.184-.145-.335-.145-.289 0-.566.208-.83.624v3.28h-1.428v-4.798h1.246l.1.57a2.18 2.18 0 0 1 .66-.543c.24-.12.508-.18.804-.18z"/>
    <circle cx="37.448" cy="8.044" r="3.544" fill="#515151"/>
</svg>
