<svg width="488" height="209" viewBox="0 0 488 209" fill="none" xmlns="http://www.w3.org/2000/svg">
<path fill-rule="evenodd" clip-rule="evenodd" d="M19.5788 30.3397C19.5788 30.3397 16.677 34.7989 12.6797 36.8208C8.68232 38.8426 4.65659 37.8873 4.65659 37.8873L2.76063 31.1758C2.76063 31.1758 6.93415 31.22 9.53057 29.1502C12.127 27.0804 15.293 23.5126 15.293 23.5126L19.5788 30.3397Z" fill="#FFA3C2"/>
<path fill-rule="evenodd" clip-rule="evenodd" d="M2.6955 90.9813C2.6955 90.9813 2.11833 97.8762 4.91323 103.206C7.70813 108.536 13.1289 110.877 13.1289 110.877L21.1367 105.646C21.1367 105.646 16.3412 102.262 15.1849 98.0344C14.0286 93.8073 13.528 87.597 13.528 87.597L2.6955 90.9813Z" fill="#FC347B"/>
<path fill-rule="evenodd" clip-rule="evenodd" d="M50.3998 158.843C50.3998 158.843 54.2607 155.182 55.5263 150.885C56.7919 146.588 55.1243 142.802 55.1243 142.802L48.1805 142.151C48.1805 142.151 48.9788 146.247 47.4127 149.175C45.8465 152.103 42.9102 155.862 42.9102 155.862L50.3998 158.843Z" fill="#FF5722"/>
<path fill-rule="evenodd" clip-rule="evenodd" d="M75.1319 70.5461C75.1319 70.5461 77.2256 74.2549 76.9363 78.0261C76.647 81.7972 74.0519 84.6238 74.0519 84.6238L68.0077 83.922C68.0077 83.922 69.9695 80.6844 69.5748 77.9893C69.1801 75.2942 67.8949 71.6689 67.8949 71.6689L75.1319 70.5461Z" fill="#B8E986"/>
<path fill-rule="evenodd" clip-rule="evenodd" d="M176.215 62.2767C176.215 62.2767 172.455 66.0405 168.127 67.1934C163.798 68.3462 160.056 66.5802 160.056 66.5802L159.587 59.6218C159.587 59.6218 163.661 60.5269 166.629 59.0378C169.597 57.5488 173.432 54.7117 173.432 54.7117L176.215 62.2767Z" fill="#FFA3C2"/>
<path fill-rule="evenodd" clip-rule="evenodd" d="M128.732 8.82124C128.732 8.82124 132.746 13.0493 133.617 18.1531C134.488 23.2569 131.983 27.8739 131.983 27.8739L123.723 28.9533C123.723 28.9533 125.251 24.0015 123.83 20.5541C122.409 17.1067 119.496 12.7205 119.496 12.7205L128.732 8.82124Z" fill="#B8E986"/>
<path fill-rule="evenodd" clip-rule="evenodd" d="M67.9792 10.9142C67.9792 10.9142 64.0147 12.4704 61.8596 15.5786C59.7045 18.6867 59.9342 22.517 59.9342 22.517L65.066 25.7864C65.066 25.7864 65.587 22.0369 67.5938 20.1951C69.6006 18.3533 72.8851 16.3517 72.8851 16.3517L67.9792 10.9142Z" fill="#FFD740"/>
<path fill-rule="evenodd" clip-rule="evenodd" d="M266.345 193.938C266.345 193.938 265.486 198.109 266.914 201.612C268.343 205.114 271.678 207.012 271.678 207.012L277.218 204.496C277.218 204.496 274.36 202.013 273.912 199.326C273.464 196.639 273.579 192.795 273.579 192.795L266.345 193.938Z" fill="#FFD740"/>
<path fill-rule="evenodd" clip-rule="evenodd" d="M8.8694 175.894C8.8694 175.894 7.80593 180.018 9.06052 183.586C10.3151 187.154 13.5528 189.214 13.5528 189.214L19.2099 186.973C19.2099 186.973 16.4778 184.353 16.1622 181.647C15.8466 178.942 16.1506 175.107 16.1506 175.107L8.8694 175.894Z" fill="#00E5FF"/>
<path fill-rule="evenodd" clip-rule="evenodd" d="M223.084 71.8894C223.084 71.8894 225.795 76.4669 229.704 78.6555C233.612 80.8442 237.675 80.0595 237.675 80.0595L239.852 73.4338C239.852 73.4338 235.681 73.302 233.174 71.1246C230.667 68.9471 227.654 65.249 227.654 65.249L223.084 71.8894Z" fill="#FFD740"/>
<path fill-rule="evenodd" clip-rule="evenodd" d="M257.926 136.73C257.926 136.73 254.904 132.352 254.553 127.886C254.202 123.42 256.615 120.059 256.615 120.059L263.544 120.856C263.544 120.856 261.917 124.7 262.845 127.888C263.772 131.076 265.869 135.361 265.869 135.361L257.926 136.73Z" fill="#FF80AB"/>
<path fill-rule="evenodd" clip-rule="evenodd" d="M308.347 93.3958C308.347 93.3958 305.636 88.8182 301.727 86.6296C297.819 84.441 293.756 85.2257 293.756 85.2257L291.579 91.8513C291.579 91.8513 295.751 91.9831 298.257 94.1606C300.764 96.3381 303.777 100.036 303.777 100.036L308.347 93.3958Z" fill="#2A78FF"/>
<path fill-rule="evenodd" clip-rule="evenodd" d="M216.234 10.2019C216.234 10.2019 212.383 6.53096 208.027 5.48419C203.672 4.43741 199.974 6.29427 199.974 6.29427L199.675 13.2621C199.675 13.2621 203.726 12.2577 206.73 13.6739C209.733 15.09 213.636 17.8326 213.636 17.8326L216.234 10.2019Z" fill="#FF5722"/>
<path fill-rule="evenodd" clip-rule="evenodd" d="M257.716 29.7855C257.716 29.7855 261.745 31.166 264.034 34.1764C266.324 37.1868 266.263 41.0235 266.263 41.0235L261.28 44.5153C261.28 44.5153 260.595 40.7923 258.509 39.0405C256.423 37.2887 253.054 35.4335 253.054 35.4335L257.716 29.7855Z" fill="#B8E986"/>
<path fill-rule="evenodd" clip-rule="evenodd" d="M306.047 7.85262C306.047 7.85262 302.051 9.32471 299.831 12.3867C297.61 15.4486 297.759 19.2829 297.759 19.2829L302.821 22.6599C302.821 22.6599 303.421 18.9223 305.466 17.1233C307.511 15.3243 310.837 13.3926 310.837 13.3926L306.047 7.85262Z" fill="#00E5FF"/>
<path fill-rule="evenodd" clip-rule="evenodd" d="M363.579 32.3397C363.579 32.3397 360.677 36.7989 356.68 38.8208C352.682 40.8426 348.657 39.8873 348.657 39.8873L346.761 33.1758C346.761 33.1758 350.934 33.22 353.531 31.1502C356.127 29.0804 359.293 25.5126 359.293 25.5126L363.579 32.3397Z" fill="#FFA3C2"/>
<path fill-rule="evenodd" clip-rule="evenodd" d="M346.696 92.9813C346.696 92.9813 346.118 99.8762 348.913 105.206C351.708 110.536 357.129 112.877 357.129 112.877L365.137 107.646C365.137 107.646 360.341 104.262 359.185 100.034C358.029 95.8073 357.528 89.597 357.528 89.597L346.696 92.9813Z" fill="#FC347B"/>
<path fill-rule="evenodd" clip-rule="evenodd" d="M394.4 160.843C394.4 160.843 398.261 157.182 399.526 152.885C400.792 148.588 399.124 144.802 399.124 144.802L392.181 144.151C392.181 144.151 392.979 148.247 391.413 151.175C389.847 154.103 386.91 157.862 386.91 157.862L394.4 160.843Z" fill="#FF5722"/>
<path fill-rule="evenodd" clip-rule="evenodd" d="M419.132 72.5461C419.132 72.5461 421.226 76.2549 420.936 80.0261C420.647 83.7972 418.052 86.6238 418.052 86.6238L412.008 85.922C412.008 85.922 413.969 82.6844 413.575 79.9893C413.18 77.2942 411.895 73.6689 411.895 73.6689L419.132 72.5461Z" fill="#B8E986"/>
<path fill-rule="evenodd" clip-rule="evenodd" d="M472.732 10.8212C472.732 10.8212 476.746 15.0493 477.617 20.1531C478.488 25.2569 475.983 29.8739 475.983 29.8739L467.723 30.9533C467.723 30.9533 469.251 26.0015 467.83 22.5541C466.409 19.1067 463.496 14.7205 463.496 14.7205L472.732 10.8212Z" fill="#B8E986"/>
<path fill-rule="evenodd" clip-rule="evenodd" d="M411.979 12.9142C411.979 12.9142 408.015 14.4704 405.86 17.5786C403.705 20.6867 403.934 24.517 403.934 24.517L409.066 27.7864C409.066 27.7864 409.587 24.0369 411.594 22.1951C413.601 20.3533 416.885 18.3517 416.885 18.3517L411.979 12.9142Z" fill="#FFD740"/>
<path fill-rule="evenodd" clip-rule="evenodd" d="M352.869 177.894C352.869 177.894 351.806 182.018 353.061 185.586C354.315 189.154 357.553 191.214 357.553 191.214L363.21 188.973C363.21 188.973 360.478 186.353 360.162 183.647C359.847 180.942 360.151 177.107 360.151 177.107L352.869 177.894Z" fill="#00E5FF"/>
<path fill-rule="evenodd" clip-rule="evenodd" d="M486.008 99.3958C486.008 99.3958 483.296 94.8182 479.388 92.6296C475.479 90.441 471.417 91.2257 471.417 91.2257L469.24 97.8513C469.24 97.8513 473.411 97.9831 475.918 100.161C478.425 102.338 481.438 106.036 481.438 106.036L486.008 99.3958Z" fill="#2A78FF"/>
</svg>
