<svg width="24" height="24" viewBox="0 0 24 24" fill="none" xmlns="http://www.w3.org/2000/svg">
<path fill-rule="evenodd" clip-rule="evenodd" d="M4.476 0C2.8324 0 1.5 1.31698 1.5 2.94157V13.2828C1.5 19.2018 6.3544 24 12.3426 24C18.3308 24 23.1852 19.2018 23.1852 13.2828V2.94157C23.1852 1.31698 21.8528 0 20.2092 0H4.476ZM12.3324 5.3607L12.7512 5.563L13.1791 5.76743L13.0518 5.31048L12.9266 4.86131L13.4458 4.42487H12.6748L12.4972 4.03158L12.3006 3.6001L12.1047 4.03158L11.9264 4.42487H11.2L11.6909 4.85141L11.5748 5.31048L11.4588 5.77026L11.8811 5.55451L12.3324 5.3607ZM11.4989 7.94537C11.3844 7.73942 11.2168 7.56788 11.0136 7.44854L11.8447 6.41015L10.5206 5.99493L8.13254 7.33183C8.13348 7.33183 7.98164 7.78619 7.677 8.6949L7.89911 8.65599L7.7824 10.1867H8.2351C8.14103 9.18297 8.09363 8.68146 8.09363 8.68146L9.02805 8.48694C9.01013 8.72192 9.05542 8.95742 9.15922 9.169C9.26301 9.38058 9.42154 9.56052 9.61834 9.69017C9.81514 9.81982 10.043 9.89444 10.2784 9.90629C10.5138 9.91815 10.748 9.86681 10.9569 9.75759C11.1657 9.64838 11.3415 9.48527 11.466 9.28519C11.5906 9.08512 11.6593 8.85536 11.6651 8.61977C11.6709 8.38417 11.6135 8.15132 11.4989 7.94537ZM12.4024 6.0083C14.5518 10.8386 13.0899 14.8358 8.01681 18.0001C9.80877 15.7955 10.3796 14.1344 9.72931 13.0168C8.82956 12.341 7.88642 12.7909 6.8999 14.3664C7.01355 12.433 8.41505 10.9796 11.1044 10.0063C11.5675 10.8051 11.7146 12.0682 11.5458 13.7955C12.1588 12.4558 12.202 11.0541 11.6752 9.59034C12.5061 8.86789 12.7485 7.67388 12.4024 6.0083ZM12.48 15.8718L16.0621 17.9231C16.0621 17.9231 15.8286 16.4872 15.3611 13.6146L18.2945 10.6034L14.3496 10.0835L13.9336 9.27856C14.293 11.9835 12.9867 14.6478 10.0149 17.2717L12.48 15.8718Z" fill="#FFE081"/>
<path fill-rule="evenodd" clip-rule="evenodd" d="M4.476 0C2.8324 0 1.5 1.31698 1.5 2.94157V13.2828C1.5 19.2018 6.3544 24 12.3426 24C18.3308 24 23.1852 19.2018 23.1852 13.2828V2.94157C23.1852 1.31698 21.8528 0 20.2092 0H4.476ZM12.3324 5.3607L12.7512 5.563L13.1791 5.76743L13.0518 5.31048L12.9266 4.86131L13.4458 4.42487H12.6748L12.4972 4.03158L12.3006 3.6001L12.1047 4.03158L11.9264 4.42487H11.2L11.6909 4.85141L11.5748 5.31048L11.4588 5.77026L11.8811 5.55451L12.3324 5.3607ZM11.4989 7.94537C11.3844 7.73942 11.2168 7.56788 11.0136 7.44854L11.8447 6.41015L10.5206 5.99493L8.13254 7.33183C8.13348 7.33183 7.98164 7.78619 7.677 8.6949L7.89911 8.65599L7.7824 10.1867H8.2351C8.14103 9.18297 8.09363 8.68146 8.09363 8.68146L9.02805 8.48694C9.01013 8.72192 9.05542 8.95742 9.15922 9.169C9.26301 9.38058 9.42154 9.56052 9.61834 9.69017C9.81514 9.81982 10.043 9.89444 10.2784 9.90629C10.5138 9.91815 10.748 9.86681 10.9569 9.75759C11.1657 9.64838 11.3415 9.48527 11.466 9.28519C11.5906 9.08512 11.6593 8.85536 11.6651 8.61977C11.6709 8.38417 11.6135 8.15132 11.4989 7.94537ZM12.4024 6.0083C14.5518 10.8386 13.0899 14.8358 8.01681 18.0001C9.80877 15.7955 10.3796 14.1344 9.72931 13.0168C8.82956 12.341 7.88642 12.7909 6.8999 14.3664C7.01355 12.433 8.41505 10.9796 11.1044 10.0063C11.5675 10.8051 11.7146 12.0682 11.5458 13.7955C12.1588 12.4558 12.202 11.0541 11.6752 9.59034C12.5061 8.86789 12.7485 7.67388 12.4024 6.0083ZM12.48 15.8718L16.0621 17.9231C16.0621 17.9231 15.8286 16.4872 15.3611 13.6146L18.2945 10.6034L14.3496 10.0835L13.9336 9.27856C14.293 11.9835 12.9867 14.6478 10.0149 17.2717L12.48 15.8718Z" fill="white"/>
</svg>
