<svg width="12" height="12" viewBox="0 0 12 12" fill="none" xmlns="http://www.w3.org/2000/svg">
<path fill-rule="evenodd" clip-rule="evenodd" d="M3.92967 5.34091C3.79458 5.2059 3.75631 5.01643 3.81307 4.85087H1.5C1.22386 4.85087 1 5.07473 1 5.35087V4.12146C1 3.84532 1.22386 3.62146 1.5 3.62146H5.07443L8.07638 0.884807C8.28045 0.698771 8.60422 0.706203 8.79954 0.901408L11.348 3.44835C11.5433 3.64356 11.5362 3.95262 11.3321 4.13865L9.78822 5.54612C9.92531 5.63529 10.016 5.78985 10.016 5.96558V7.13469H8.26201C8.15985 7.13469 8.06298 7.15739 7.97619 7.19801L7.67944 7.46854C7.62069 7.56864 7.58701 7.68523 7.58701 7.80969V8.6538C7.58701 9.02659 7.88922 9.3288 8.26201 9.3288H10.016V10.4979C10.016 10.774 9.79211 10.9979 9.51597 10.9979H1.5C1.22386 10.9979 1 10.774 1 10.4979V5.96557C1 5.68943 1.22386 5.46558 1.5 5.46558H4.05441L3.92967 5.34091ZM4.29228 5.46558H5.22296L9.48168 1.58322L9.03771 1.13952L4.29228 5.46558ZM8.16211 3.63398C8.06008 3.72699 8.05653 3.88152 8.15419 3.97913L8.39249 4.21728C8.49015 4.31489 8.65203 4.3186 8.75407 4.22558L8.87155 4.11848C8.97359 4.02546 8.97714 3.87094 8.87948 3.77333L8.64118 3.53518C8.54352 3.43757 8.38163 3.43386 8.2796 3.52687L8.16211 3.63398ZM9.13616 2.74607C9.03412 2.83908 9.03057 2.99361 9.12823 3.09122L9.36653 3.32937C9.46419 3.42698 9.62608 3.43069 9.72811 3.33768L9.8456 3.23057C9.94763 3.13756 9.95118 2.98303 9.85352 2.88542L9.61522 2.64727C9.51756 2.54966 9.35568 2.54595 9.25364 2.63897L9.13616 2.74607ZM8.26201 7.48469H10.016V8.9788H8.26201C8.08252 8.9788 7.93701 8.83329 7.93701 8.6538V7.80969C7.93701 7.6302 8.08252 7.48469 8.26201 7.48469Z" fill="#27AE60"/>
</svg>
