<svg width="12" height="12" viewBox="0 0 12 12" fill="none" xmlns="http://www.w3.org/2000/svg">
<path fill-rule="evenodd" clip-rule="evenodd" d="M7.74274 4.00984C7.52033 4.00984 7.40894 3.74018 7.56621 3.58247L9.56956 1.57347C9.66705 1.4757 9.82512 1.4757 9.92262 1.57347L11.926 3.58247C12.0832 3.74018 11.9718 4.00984 11.7494 4.00984H10.9745V9.91968C10.9745 10.0577 10.8626 10.1697 10.7245 10.1697H8.7675C8.62943 10.1697 8.5175 10.0577 8.5175 9.91968V4.00984H7.74274ZM6.60505 3.92339L7.77627 2.66072C7.70411 2.6397 7.62791 2.62842 7.54922 2.62842H1.8162C1.36165 2.62842 0.997192 2.99801 0.997192 3.44973V9.19891C0.997192 9.65063 1.36165 10.0202 1.8162 10.0202H7.54922C7.6511 10.0202 7.7488 10.0013 7.83898 9.96682V4.59341C7.83898 4.45533 7.72706 4.34341 7.58898 4.34341H6.78834C6.57011 4.34341 6.45664 4.08339 6.60505 3.92339ZM5.91126 5.09236C5.91126 5.77405 5.36253 6.32432 4.68276 6.32432C4.00299 6.32432 3.45425 5.77405 3.45425 5.09236C3.45425 4.41067 4.00299 3.86039 4.68276 3.86039C5.36253 3.86039 5.91126 4.41067 5.91126 5.09236ZM2.22578 8.37761C2.22578 7.5563 3.86379 7.10458 4.68279 7.10458C5.5018 7.10458 7.1398 7.5563 7.1398 8.37761V8.78826H2.22578V8.37761Z" fill="#27AE60"/>
</svg>
