<svg xmlns="http://www.w3.org/2000/svg" width="12" height="12" fill="none" viewBox="0 0 12 12">
    <path fill="#27AE60" fill-rule="evenodd" d="M11.5 6a5.5 5.5 0 1 1-11 0 5.5 5.5 0 0 1 11 0zM5.134 8.343s.014-.002.04-.009a1.142 1.142 0 0 1-.04.01zm.04-.009c.157-.04.792-.25 1.783-1.172 1.16-1.078 1.372-2.06 1.372-2.06l.38.273s-.25.807-1.38 1.787c-.991.86-1.953 1.124-2.156 1.172zm-.215.128h0zM7.455 7.36c1.43-1.216 1.473-1.807 1.473-1.807l.271.224a.488.488 0 0 0-.032.047c-.131.2-.656.998-1.548 1.615a6.485 6.485 0 0 1-2.302 1.02c-.225.05-.326.039-.326.039l-.01-.01.01.01s-.332-.027-.691-.124c-.307-.082-.63-.225-.847-.32a21.915 21.915 0 0 0-.02-.01c-.442-.194-.878-.422-.878-.422s-.044-.044-.053-.12c-.013-.115.035-.179.035-.179s.664-.384 1.242-1.507C4.36 4.687 4.218 4 4.218 4l2.355.468.84.165s-.067.576-.984 1.962c-.877 1.323-1.494 1.514-1.494 1.514l-.007.005a.175.175 0 0 0-.059.194l.002.004a.549.549 0 0 0 .008.017c.058.122.238.108.238.108l-.012.006a5.03 5.03 0 0 0 2.35-1.083z" clip-rule="evenodd"/>
</svg>
