<svg xmlns="http://www.w3.org/2000/svg" width="45" height="45" fill="none" viewBox="0 0 45 45">
    <path fill="#fff" fill-rule="evenodd" d="M23.195 4.118l-1.283 3.947a1.5 1.5 0 0 1-1.426 1.037h-4.15l3.357 2.439a1.5 1.5 0 0 1 .545 1.677l-1.282 3.947 3.357-2.44a1.5 1.5 0 0 1 1.764 0l3.357 2.44-1.282-3.947a1.5 1.5 0 0 1 .545-1.677l3.357-2.44h-4.15a1.5 1.5 0 0 1-1.427-1.036l-1.282-3.947zM17.71 18.07zm4.057-16.034c.45-1.381 2.404-1.381 2.854 0l1.645 5.066h5.326c1.453 0 2.057 1.859.882 2.713l-4.309 3.13 1.646 5.066c.449 1.382-1.133 2.53-2.308 1.677l-4.31-3.13-4.308 3.13c-1.175.854-2.757-.295-2.308-1.677l1.646-5.066-4.309-3.13c-1.175-.854-.571-2.713.882-2.713h5.326l1.645-5.066zm-4.19 20.917v5.746H8v13.325h28.648v-11.41h-9.577v-7.661h-9.493zm-2-.5a1.5 1.5 0 0 1 1.5-1.5H27.57a1.5 1.5 0 0 1 1.5 1.5v6.162h8.077a1.5 1.5 0 0 1 1.5 1.5v12.409a1.5 1.5 0 0 1-1.5 1.5H7.5a1.5 1.5 0 0 1-1.5-1.5V28.199a1.5 1.5 0 0 1 1.5-1.5h8.078v-4.246z" clip-rule="evenodd"/>
</svg>
